<svg width="141" height="95" viewBox="0 0 141 95" fill="none" xmlns="http://www.w3.org/2000/svg">
<path d="M16.72 54.1905V53.8125L18.376 53.5425V40.4385L16.72 40.1865V39.7905H22.012V40.1865L20.356 40.4385V53.7585H25.738L27.214 49.7985H27.7V54.1905H16.72ZM90.2524 54.5505L85.0684 40.4385L83.6284 40.1865V39.7905H88.9024V40.1865L87.2104 40.4025L91.1704 51.1845L95.0584 40.9965L92.9884 40.1865V39.7905H96.8584V40.1865L95.5444 40.9785L90.3964 54.5505H90.2524Z" fill="#01B1E2"/>
<path d="M29.374 59.4465C28.75 59.4465 28.246 59.2905 27.862 58.9785C27.478 58.6665 27.286 58.2465 27.286 57.7185C27.286 57.3585 27.388 57.0645 27.592 56.8365C27.808 56.6205 28.072 56.5125 28.384 56.5125C28.612 56.5125 28.816 56.5605 28.996 56.6565C29.176 56.7525 29.32 56.8965 29.428 57.0885C29.248 57.3405 29.158 57.6045 29.158 57.8805C29.158 58.1205 29.236 58.3185 29.392 58.4745C29.548 58.6305 29.746 58.7085 29.986 58.7085C30.274 58.7085 30.52 58.6125 30.724 58.4205C30.94 58.2285 31.132 57.8925 31.3 57.4125L32.38 54.3165L28.204 45.4245L26.998 45.2445V44.8845H31.48V45.2445L30.22 45.4605L33.226 51.8865L35.368 45.6945L33.82 45.2445V44.8845H37.06V45.2445L35.836 45.6945L31.804 57.4125C31.552 58.1205 31.246 58.6365 30.886 58.9605C30.538 59.2845 30.034 59.4465 29.374 59.4465ZM41.2388 54.3705C40.3748 54.3705 39.6908 54.1545 39.1868 53.7225C38.6948 53.2905 38.4488 52.6485 38.4488 51.7965V45.4065L37.1888 45.2265V44.8665H40.2488V51.7605C40.2488 52.3725 40.3748 52.8525 40.6268 53.2005C40.8788 53.5485 41.2688 53.7225 41.7968 53.7225C42.3488 53.7225 42.8768 53.5425 43.3808 53.1825C43.8968 52.8105 44.3528 52.3545 44.7488 51.8145V45.4065L43.4888 45.2265V44.8665H46.5488V53.6505L47.8088 53.8305V54.1905H44.7488V52.4625C44.3168 53.0625 43.7948 53.5305 43.1828 53.8665C42.5828 54.2025 41.9348 54.3705 41.2388 54.3705ZM54.7179 54.3705C54.0099 54.3705 53.3979 54.1905 52.8819 53.8305C52.3779 53.4585 51.9759 52.9545 51.6759 52.3185V54.1905H48.6159V53.8305L49.8759 53.6505V40.3305L48.6159 40.1505V39.7905H51.6759V46.7565C51.9759 46.1205 52.3779 45.6225 52.8819 45.2625C53.3979 44.8905 54.0099 44.7045 54.7179 44.7045C55.5699 44.7045 56.3199 44.9025 56.9679 45.2985C57.6159 45.6945 58.1199 46.2585 58.4799 46.9905C58.8399 47.7105 59.0199 48.5565 59.0199 49.5285C59.0199 50.5005 58.8399 51.3525 58.4799 52.0845C58.1199 52.8045 57.6159 53.3685 56.9679 53.7765C56.3199 54.1725 55.5699 54.3705 54.7179 54.3705ZM54.5379 53.9205C56.2059 53.9205 57.0399 52.7565 57.0399 50.4285V48.6285C57.0399 46.3125 56.2059 45.1545 54.5379 45.1545C54.0099 45.1545 53.5299 45.3105 53.0979 45.6225C52.6659 45.9225 52.3239 46.3305 52.0719 46.8465C51.8199 47.3505 51.6879 47.9025 51.6759 48.5025V50.4285C51.6759 51.0405 51.7959 51.6165 52.0359 52.1565C52.2879 52.6965 52.6299 53.1285 53.0619 53.4525C53.5059 53.7645 53.9979 53.9205 54.5379 53.9205ZM65.2231 54.3705C64.3591 54.3705 63.5731 54.1725 62.8651 53.7765C62.1571 53.3685 61.5931 52.7985 61.1731 52.0665C60.7651 51.3225 60.5611 50.4765 60.5611 49.5285C60.5611 48.5805 60.7651 47.7405 61.1731 47.0085C61.5931 46.2765 62.1571 45.7125 62.8651 45.3165C63.5731 44.9085 64.3591 44.7045 65.2231 44.7045C66.0871 44.7045 66.8731 44.9085 67.5811 45.3165C68.2891 45.7125 68.8471 46.2765 69.2551 47.0085C69.6751 47.7405 69.8851 48.5805 69.8851 49.5285C69.8851 50.4765 69.6751 51.3225 69.2551 52.0665C68.8471 52.7985 68.2891 53.3685 67.5811 53.7765C66.8731 54.1725 66.0871 54.3705 65.2231 54.3705ZM65.2231 53.9745C66.1111 53.9745 66.7771 53.6505 67.2211 53.0025C67.6771 52.3545 67.9051 51.4965 67.9051 50.4285V48.6285C67.9051 47.5605 67.6771 46.7085 67.2211 46.0725C66.7771 45.4245 66.1111 45.1005 65.2231 45.1005C64.3351 45.1005 63.6631 45.4245 63.2071 46.0725C62.7631 46.7085 62.5411 47.5605 62.5411 48.6285V50.4285C62.5411 51.4965 62.7631 52.3545 63.2071 53.0025C63.6631 53.6505 64.3351 53.9745 65.2231 53.9745ZM75.0688 54.5505L71.2168 45.4065L70.0468 45.2265V44.8665H74.5288V45.2265L73.2328 45.4605L75.9508 52.2285L78.3808 45.6945L76.7968 45.2445V44.8845H80.0188V45.2445L78.8848 45.6765L75.5728 54.5505H75.0688ZM98.4169 54.3705C97.6489 54.3705 97.0189 54.1725 96.5269 53.7765C96.0349 53.3685 95.7889 52.7685 95.7889 51.9765C95.7889 50.8485 96.2629 50.0505 97.2109 49.5825C98.1589 49.1025 99.2569 48.8625 100.505 48.8625H101.711V47.4765C101.711 46.8525 101.639 46.3725 101.495 46.0365C101.363 45.6885 101.153 45.4485 100.865 45.3165C100.577 45.1725 100.187 45.1005 99.6949 45.1005C99.1309 45.1005 98.7109 45.2145 98.4349 45.4425C98.1589 45.6585 98.0209 45.9525 98.0209 46.3245C98.0209 46.6725 98.1889 46.9005 98.5249 47.0085C98.5249 47.3085 98.4109 47.5725 98.1829 47.8005C97.9549 48.0285 97.6849 48.1425 97.3729 48.1425C97.0369 48.1425 96.7669 48.0525 96.5629 47.8725C96.3589 47.6805 96.2569 47.3925 96.2569 47.0085C96.2569 46.3125 96.6049 45.7545 97.3009 45.3345C97.9969 44.9145 98.8669 44.7045 99.9109 44.7045C102.311 44.7045 103.511 45.7485 103.511 47.8365V52.9845C103.511 53.2485 103.565 53.4525 103.673 53.5965C103.793 53.7285 103.961 53.7945 104.177 53.7945C104.381 53.7945 104.543 53.7285 104.663 53.5965C104.783 53.4525 104.843 53.2605 104.843 53.0205H105.221C105.221 53.4405 105.083 53.7705 104.807 54.0105C104.543 54.2505 104.171 54.3705 103.691 54.3705C103.139 54.3705 102.671 54.2145 102.287 53.9025C101.915 53.5785 101.723 53.0805 101.711 52.4085C101.423 53.0205 100.979 53.5005 100.379 53.8485C99.7909 54.1965 99.1369 54.3705 98.4169 54.3705ZM99.4069 53.5785C99.7309 53.5785 100.061 53.4825 100.397 53.2905C100.745 53.0985 101.039 52.8225 101.279 52.4625C101.519 52.0905 101.663 51.6465 101.711 51.1305V49.2585H100.505C99.5209 49.2585 98.7829 49.4805 98.2909 49.9245C97.8109 50.3565 97.5709 50.9685 97.5709 51.7605C97.5709 52.4205 97.7269 52.8885 98.0389 53.1645C98.3509 53.4405 98.8069 53.5785 99.4069 53.5785ZM105.66 53.8305L106.92 53.6505V45.4065L105.66 45.2265V44.8665H108.72V46.2525C109.476 45.2205 110.328 44.7045 111.276 44.7045C111.732 44.7045 112.134 44.8245 112.482 45.0645C112.83 45.2925 113.004 45.6225 113.004 46.0545C113.004 46.3665 112.902 46.6305 112.698 46.8465C112.494 47.0505 112.224 47.1525 111.888 47.1525C111.504 47.1525 111.192 47.0025 110.952 46.7025C111.084 46.5345 111.15 46.3545 111.15 46.1625C111.15 45.9585 111.078 45.7965 110.934 45.6765C110.802 45.5445 110.622 45.4785 110.394 45.4785C110.142 45.4785 109.884 45.5985 109.62 45.8385C109.356 46.0665 109.056 46.4265 108.72 46.9185V53.6505L110.16 53.8305V54.1905H105.66V53.8305ZM115.549 42.7785C115.213 42.7785 114.925 42.6645 114.685 42.4365C114.445 42.1965 114.325 41.9085 114.325 41.5725C114.325 41.2365 114.439 40.9545 114.667 40.7265C114.907 40.4985 115.201 40.3845 115.549 40.3845C115.873 40.3845 116.149 40.4985 116.377 40.7265C116.605 40.9545 116.719 41.2365 116.719 41.5725C116.719 41.9085 116.605 42.1965 116.377 42.4365C116.149 42.6645 115.873 42.7785 115.549 42.7785ZM113.641 54.1905V53.8305L114.901 53.6505V45.4245L113.641 45.2445V44.8845H116.701V53.6505L117.961 53.8305V54.1905H113.641ZM118.826 53.8305L120.086 53.6505V45.4065L118.826 45.2265V44.8665H121.886V46.8105C122.33 46.1625 122.852 45.6525 123.452 45.2805C124.052 44.8965 124.7 44.7045 125.396 44.7045C126.26 44.7045 126.938 44.9205 127.43 45.3525C127.934 45.7845 128.186 46.4265 128.186 47.2785V53.6505L129.446 53.8305V54.1905H125.306V53.8305L126.386 53.6505V47.3145C126.386 46.6905 126.26 46.2105 126.008 45.8745C125.756 45.5265 125.366 45.3525 124.838 45.3525C124.286 45.3525 123.752 45.5565 123.236 45.9645C122.732 46.3605 122.282 46.8525 121.886 47.4405V53.6505L122.966 53.8305V54.1905H118.826V53.8305ZM133.222 54.3705C132.454 54.3705 131.824 54.1725 131.332 53.7765C130.84 53.3685 130.594 52.7685 130.594 51.9765C130.594 50.8485 131.068 50.0505 132.016 49.5825C132.964 49.1025 134.062 48.8625 135.31 48.8625H136.516V47.4765C136.516 46.8525 136.444 46.3725 136.3 46.0365C136.168 45.6885 135.958 45.4485 135.67 45.3165C135.382 45.1725 134.992 45.1005 134.5 45.1005C133.936 45.1005 133.516 45.2145 133.24 45.4425C132.964 45.6585 132.826 45.9525 132.826 46.3245C132.826 46.6725 132.994 46.9005 133.33 47.0085C133.33 47.3085 133.216 47.5725 132.988 47.8005C132.76 48.0285 132.49 48.1425 132.178 48.1425C131.842 48.1425 131.572 48.0525 131.368 47.8725C131.164 47.6805 131.062 47.3925 131.062 47.0085C131.062 46.3125 131.41 45.7545 132.106 45.3345C132.802 44.9145 133.672 44.7045 134.716 44.7045C137.116 44.7045 138.316 45.7485 138.316 47.8365V52.9845C138.316 53.2485 138.37 53.4525 138.478 53.5965C138.598 53.7285 138.766 53.7945 138.982 53.7945C139.186 53.7945 139.348 53.7285 139.468 53.5965C139.588 53.4525 139.648 53.2605 139.648 53.0205H140.026C140.026 53.4405 139.888 53.7705 139.612 54.0105C139.348 54.2505 138.976 54.3705 138.496 54.3705C137.944 54.3705 137.476 54.2145 137.092 53.9025C136.72 53.5785 136.528 53.0805 136.516 52.4085C136.228 53.0205 135.784 53.5005 135.184 53.8485C134.596 54.1965 133.942 54.3705 133.222 54.3705ZM134.212 53.5785C134.536 53.5785 134.866 53.4825 135.202 53.2905C135.55 53.0985 135.844 52.8225 136.084 52.4625C136.324 52.0905 136.468 51.6465 136.516 51.1305V49.2585H135.31C134.326 49.2585 133.588 49.4805 133.096 49.9245C132.616 50.3565 132.376 50.9685 132.376 51.7605C132.376 52.4205 132.532 52.8885 132.844 53.1645C133.156 53.4405 133.612 53.5785 134.212 53.5785Z" fill="#00141A"/>
<path d="M28.4836 68.5118C20.3909 57.9251 -2.58551 33.8472 11.6299 19.3057C19.824 10.9236 28.305 21.5098 32.5675 28.5305C34.5054 31.7223 36.0725 34.9782 37.6935 38.3261C38.2499 39.4752 38.9122 42.8534 39.4546 41.7258C40.2814 40.0069 39.8544 36.5666 40.4542 34.5344C41.2838 31.7232 42.5697 29.2452 44.3904 27C47.6662 22.9608 55.519 15.8151 61.2483 20.5207C68.6322 26.5854 62.899 43.3714 59.2655 50.0872C56.1889 55.7737 52.1234 61.7477 47.6493 66.3243C47.1172 66.8686 43.5209 71.3024 44.8761 68.0726C45.9892 65.4198 47.2371 62.1935 47.2188 59.225C47.2009 56.3222 44.7894 64.3937 43.4769 66.9234C40.8848 71.9195 48.523 68.9054 51.4551 68.963" stroke="#01B1E2" stroke-width="1.36118" stroke-linecap="round"/>
</svg>
